<svg width="24.849609" height="24.849609" viewBox="0 0 24.8496 24.8496" fill="none" xmlns="http://www.w3.org/2000/svg" xmlns:xlink="http://www.w3.org/1999/xlink">
	<desc>
			Created with Pixso.
	</desc>
	<defs/>
	<path id="Vector" d="M12.42 0C5.56 0 0 5.56 0 12.42C0 19.28 5.56 24.84 12.42 24.84C19.28 24.84 24.84 19.28 24.84 12.42C24.84 5.56 19.28 0 12.42 0ZM18.4 13.01C18.38 13.04 18.36 13.06 18.34 13.08L9.46 21.07C9.09 21.39 8.53 21.35 8.21 20.98C7.9 20.62 7.93 20.07 8.28 19.75L16.42 12.42L8.28 5.09C7.92 4.76 7.9 4.2 8.24 3.84C8.56 3.49 9.1 3.46 9.46 3.77L18.34 11.76C18.7 12.09 18.73 12.65 18.4 13.01Z" fill="#65C466" fill-opacity="1.000000" fill-rule="nonzero"/>
</svg>
