<svg width="24.849609" height="24.849609" viewBox="0 0 24.8496 24.8496" fill="none" xmlns="http://www.w3.org/2000/svg" xmlns:xlink="http://www.w3.org/1999/xlink">
	<desc>
			Created with Pixso.
	</desc>
	<defs/>
	<path id="Vector" d="M12.42 24.84C19.28 24.84 24.84 19.28 24.84 12.42C24.84 5.56 19.28 0 12.42 0C5.56 0 0 5.56 0 12.42C0 19.28 5.56 24.84 12.42 24.84ZM6.44 11.83C6.46 11.8 6.48 11.78 6.5 11.76L15.38 3.77C15.75 3.45 16.31 3.49 16.63 3.86C16.94 4.22 16.91 4.77 16.56 5.09L8.42 12.42L16.56 19.75C16.92 20.08 16.94 20.64 16.6 21C16.28 21.35 15.74 21.38 15.38 21.07L6.5 13.08C6.14 12.75 6.11 12.19 6.44 11.83Z" fill="#65C466" fill-opacity="1.000000" fill-rule="nonzero"/>
	<path id="Vector" d="M24.84 12.42C24.84 5.56 19.28 0 12.42 0C5.56 0 0 5.56 0 12.42C0 19.28 5.56 24.84 12.42 24.84C19.28 24.84 24.84 19.28 24.84 12.42ZM6.5 11.76L15.38 3.77C15.75 3.45 16.31 3.49 16.63 3.86C16.94 4.22 16.91 4.77 16.56 5.09L8.42 12.42L16.56 19.75C16.92 20.08 16.94 20.64 16.6 21C16.28 21.35 15.74 21.38 15.38 21.07L6.5 13.08C6.14 12.75 6.11 12.19 6.44 11.83C6.46 11.8 6.48 11.78 6.5 11.76Z" stroke="#000000" stroke-opacity="0" stroke-width="1.000000"/>
</svg>
