<svg width="34.113281" height="34.113159" viewBox="0 0 34.1133 34.1132" fill="none" xmlns="http://www.w3.org/2000/svg" xmlns:xlink="http://www.w3.org/1999/xlink">
	<desc>
			Created with Pixso.
	</desc>
	<defs/>
	<path id="Vector" d="M33.9 31.89L23.99 21.98C25.87 19.66 27 16.71 27 13.5C27 6.05 20.94 0 13.5 0C6.05 0 0 6.05 0 13.5C0 20.94 6.05 27 13.5 27C16.71 27 19.66 25.87 21.98 23.99L31.89 33.9C32.17 34.18 32.62 34.18 32.9 33.9L33.9 32.9C34.18 32.62 34.18 32.17 33.9 31.89ZM13.5 24.16C7.62 24.16 2.84 19.38 2.84 13.5C2.84 7.62 7.62 2.84 13.5 2.84C19.38 2.84 24.16 7.62 24.16 13.5C24.16 19.38 19.38 24.16 13.5 24.16Z" fill="#414141" fill-opacity="1.000000" fill-rule="nonzero"/>
</svg>
